HIERARCHY
ROOT Hips
{
	OFFSET 0.000000 121.760803 0.000000
	CHANNELS 6 Xposition Yposition Zposition Xrotation Yrotation Zrotation 
	JOINT Spine
	{
		OFFSET 0.072000 7.257294 -0.789700
		CHANNELS 3 Xrotation Yrotation Zrotation
		JOINT Spine1
		{
			OFFSET 0.000000 12.508769 -0.658067
			CHANNELS 3 Xrotation Yrotation Zrotation
			JOINT Spine1_split
			{
				OFFSET 0.000000 12.508769 -0.658067
				CHANNELS 3 Xrotation Yrotation Zrotation
				JOINT Spine2
				{
					OFFSET 0.000000 12.508769 -0.658067
					CHANNELS 3 Xrotation Yrotation Zrotation
					JOINT Neck
					{
						OFFSET 0.000000 14.033295 7.520400
						CHANNELS 3 Xrotation Yrotation Zrotation
						JOINT Head
						{
							OFFSET 0.000000 8.198502 5.703100
							CHANNELS 3 Xrotation Yrotation Zrotation
							JOINT HeadTop_End
							{
								OFFSET 0.000000 17.760803 13.332701
								CHANNELS 3 Xrotation Yrotation Zrotation
								End Site
								{
									OFFSET 0.000000 0.000000 0.000000
								}
							}
						}
					}
					JOINT LeftShoulder
					{
						OFFSET 6.292450 5.785301 -0.669000
						CHANNELS 3 Xrotation Yrotation Zrotation
						JOINT LeftShoulder_split
						{
							OFFSET 6.292450 5.785301 -0.669000
							CHANNELS 3 Xrotation Yrotation Zrotation
							JOINT LeftArm
							{
								OFFSET 13.907140 -6.093903 1.965100
								CHANNELS 3 Xrotation Yrotation Zrotation
								JOINT LeftForeArm
								{
									OFFSET 34.140198 0.000000 0.000000
									CHANNELS 3 Xrotation Yrotation Zrotation
									JOINT LeftHand
									{
										OFFSET 40.960209 0.000000 0.000000
										CHANNELS 3 Xrotation Yrotation Zrotation
										JOINT LeftHandThumb1
										{
											OFFSET 10.006996 -7.170425 9.573125
											CHANNELS 3 Xrotation Yrotation Zrotation
											JOINT LeftHandThumb2
											{
												OFFSET 1.835007 -1.059448 1.059443
												CHANNELS 3 Xrotation Yrotation Zrotation
												JOINT LeftHandThumb3
												{
													OFFSET 2.112267 -1.219513 1.219518
													CHANNELS 3 Xrotation Yrotation Zrotation
													JOINT LeftHandThumb4
													{
														OFFSET 4.843811 -2.796570 2.796576
														CHANNELS 3 Xrotation Yrotation Zrotation
														End Site
														{
															OFFSET 0.000000 0.000000 0.000000
														}
													}
												}
											}
										}
										JOINT LeftHandIndex1
										{
											OFFSET 18.389847 -0.922348 4.596882
											CHANNELS 3 Xrotation Yrotation Zrotation
											JOINT LeftHandIndex2
											{
												OFFSET 4.711273 0.000000 0.000000
												CHANNELS 3 Xrotation Yrotation Zrotation
												JOINT LeftHandIndex3
												{
													OFFSET 2.886131 0.000000 0.000000
													CHANNELS 3 Xrotation Yrotation Zrotation
													JOINT LeftHandIndex4
													{
														OFFSET 6.145912 0.000000 0.000000
														CHANNELS 3 Xrotation Yrotation Zrotation
														End Site
														{
															OFFSET 0.000000 0.000000 0.000000
														}
													}
												}
											}
										}
										JOINT LeftHandMiddle1
										{
											OFFSET 18.013008 0.000000 0.000000
											CHANNELS 3 Xrotation Yrotation Zrotation
											JOINT LeftHandMiddle2
											{
												OFFSET 4.946693 0.000000 0.000000
												CHANNELS 3 Xrotation Yrotation Zrotation
												JOINT LeftHandMiddle3
												{
													OFFSET 3.342232 0.000000 0.000000
													CHANNELS 3 Xrotation Yrotation Zrotation
													JOINT LeftHandMiddle4
													{
														OFFSET 4.461754 0.000000 0.000000
														CHANNELS 3 Xrotation Yrotation Zrotation
														End Site
														{
															OFFSET 0.000000 0.000000 0.000000
														}
													}
												}
											}
										}
										JOINT LeftHandRing1
										{
											OFFSET 15.849892 -0.102921 -4.126150
											CHANNELS 3 Xrotation Yrotation Zrotation
											JOINT LeftHandRing2
											{
												OFFSET 3.527054 0.000000 0.000000
												CHANNELS 3 Xrotation Yrotation Zrotation
												JOINT LeftHandRing3
												{
													OFFSET 2.961098 0.000000 0.000000
													CHANNELS 3 Xrotation Yrotation Zrotation
													JOINT LeftHandRing4
													{
														OFFSET 4.927200 0.000000 0.000000
														CHANNELS 3 Xrotation Yrotation Zrotation
														End Site
														{
															OFFSET 0.000000 0.000000 0.000000
														}
													}
												}
											}
										}
										JOINT LeftHandPinky1
										{
											OFFSET 12.791824 -0.832031 -6.799156
											CHANNELS 3 Xrotation Yrotation Zrotation
											JOINT LeftHandPinky2
											{
												OFFSET 3.327133 0.000000 0.000000
												CHANNELS 3 Xrotation Yrotation Zrotation
												JOINT LeftHandPinky3
												{
													OFFSET 3.014900 0.000000 0.000000
													CHANNELS 3 Xrotation Yrotation Zrotation
													JOINT LeftHandPinky4
													{
														OFFSET 5.847786 0.000000 0.000000
														CHANNELS 3 Xrotation Yrotation Zrotation
														End Site
														{
															OFFSET 0.000000 0.000000 0.000000
														}
													}
												}
											}
										}
									}
								}
							}
						}
					}
					JOINT RightShoulder
					{
						OFFSET -6.292450 5.785301 -0.669000
						CHANNELS 3 Xrotation Yrotation Zrotation
						JOINT RightShoulder_split
						{
							OFFSET -6.292450 5.785301 -0.669000
							CHANNELS 3 Xrotation Yrotation Zrotation
							JOINT RightArm
							{
								OFFSET -13.907140 -6.093903 1.965100
								CHANNELS 3 Xrotation Yrotation Zrotation
								JOINT RightForeArm
								{
									OFFSET -34.140198 0.000000 0.000000
									CHANNELS 3 Xrotation Yrotation Zrotation
									JOINT RightHand
									{
										OFFSET -40.960209 0.000000 0.000000
										CHANNELS 3 Xrotation Yrotation Zrotation
										JOINT RightHandThumb1
										{
											OFFSET -10.007050 -7.170456 9.573117
											CHANNELS 3 Xrotation Yrotation Zrotation
											JOINT RightHandThumb2
											{
												OFFSET -1.835007 -1.059448 1.059443
												CHANNELS 3 Xrotation Yrotation Zrotation
												JOINT RightHandThumb3
												{
													OFFSET -2.112267 -1.219513 1.219518
													CHANNELS 3 Xrotation Yrotation Zrotation
													JOINT RightHandThumb4
													{
														OFFSET -4.843834 -2.796585 2.796590
														CHANNELS 3 Xrotation Yrotation Zrotation
														End Site
														{
															OFFSET 0.000000 0.000000 0.000000
														}
													}
												}
											}
										}
										JOINT RightHandIndex1
										{
											OFFSET -18.389870 -0.922424 4.596786
											CHANNELS 3 Xrotation Yrotation Zrotation
											JOINT RightHandIndex2
											{
												OFFSET -4.711273 0.000000 0.000000
												CHANNELS 3 Xrotation Yrotation Zrotation
												JOINT RightHandIndex3
												{
													OFFSET -2.886131 0.000000 0.000000
													CHANNELS 3 Xrotation Yrotation Zrotation
													JOINT RightHandIndex4
													{
														OFFSET -6.145920 0.000000 0.000000
														CHANNELS 3 Xrotation Yrotation Zrotation
														End Site
														{
															OFFSET 0.000000 0.000000 0.000000
														}
													}
												}
											}
										}
										JOINT RightHandMiddle1
										{
											OFFSET -18.013008 0.000000 0.000000
											CHANNELS 3 Xrotation Yrotation Zrotation
											JOINT RightHandMiddle2
											{
												OFFSET -4.946693 0.000000 0.000000
												CHANNELS 3 Xrotation Yrotation Zrotation
												JOINT RightHandMiddle3
												{
													OFFSET -3.342232 0.000000 0.000000
													CHANNELS 3 Xrotation Yrotation Zrotation
													JOINT RightHandMiddle4
													{
														OFFSET -4.461754 0.000000 0.000000
														CHANNELS 3 Xrotation Yrotation Zrotation
														End Site
														{
															OFFSET 0.000000 0.000000 0.000000
														}
													}
												}
											}
										}
										JOINT RightHandRing1
										{
											OFFSET -15.849876 -0.102936 -4.126237
											CHANNELS 3 Xrotation Yrotation Zrotation
											JOINT RightHandRing2
											{
												OFFSET -3.527054 0.000000 0.000000
												CHANNELS 3 Xrotation Yrotation Zrotation
												JOINT RightHandRing3
												{
													OFFSET -2.961098 0.000000 0.000000
													CHANNELS 3 Xrotation Yrotation Zrotation
													JOINT RightHandRing4
													{
														OFFSET -4.927200 0.000000 0.000000
														CHANNELS 3 Xrotation Yrotation Zrotation
														End Site
														{
															OFFSET 0.000000 0.000000 0.000000
														}
													}
												}
											}
										}
										JOINT RightHandPinky1
										{
											OFFSET -12.791786 -0.832077 -6.799222
											CHANNELS 3 Xrotation Yrotation Zrotation
											JOINT RightHandPinky2
											{
												OFFSET -3.327133 0.000000 0.000000
												CHANNELS 3 Xrotation Yrotation Zrotation
												JOINT RightHandPinky3
												{
													OFFSET -3.014900 0.000000 0.000000
													CHANNELS 3 Xrotation Yrotation Zrotation
													JOINT RightHandPinky4
													{
														OFFSET -5.847786 0.000000 0.000000
														CHANNELS 3 Xrotation Yrotation Zrotation
														End Site
														{
															OFFSET 0.000000 0.000000 0.000000
														}
													}
												}
											}
										}
									}
								}
							}
						}
					}
				}
			}
		}
	}
	JOINT LeftUpLeg
	{
		OFFSET 13.026900 -6.336304 -1.092800
		CHANNELS 3 Xrotation Yrotation Zrotation
		JOINT LeftLeg
		{
			OFFSET 0.524474 -46.096886 9.782700
			CHANNELS 3 Xrotation Yrotation Zrotation
			JOINT LeftFoot
			{
				OFFSET -0.524474 -53.427422 -12.948200
				CHANNELS 3 Xrotation Yrotation Zrotation
				JOINT LeftToeBase
				{
					OFFSET 0.192200 -14.009700 16.364100
					CHANNELS 3 Xrotation Yrotation Zrotation
					JOINT LeftToe_End
					{
						OFFSET -1.784700 -0.561700 9.474800
						CHANNELS 3 Xrotation Yrotation Zrotation
						End Site
						{
							OFFSET 0.000000 0.000000 0.000000
						}
					}
				}
			}
		}
	}
	JOINT RightUpLeg
	{
		OFFSET -12.883000 -6.336304 -1.092800
		CHANNELS 3 Xrotation Yrotation Zrotation
		JOINT RightLeg
		{
			OFFSET -0.524587 -46.096825 9.782800
			CHANNELS 3 Xrotation Yrotation Zrotation
			JOINT RightFoot
			{
				OFFSET 0.524587 -53.427383 -12.948300
				CHANNELS 3 Xrotation Yrotation Zrotation
				JOINT RightToeBase
				{
					OFFSET -0.192200 -14.009700 16.364100
					CHANNELS 3 Xrotation Yrotation Zrotation
					JOINT RightToe_End
					{
						OFFSET 1.784700 -0.561700 9.474800
						CHANNELS 3 Xrotation Yrotation Zrotation
						End Site
						{
							OFFSET 0.000000 0.000000 0.000000
						}
					}
				}
			}
		}
	}
}
MOTION
Frames: 4
Frame Time: 0.016667
18.147856 64.776443 -52.589638 48.933955 -30.605972 16.074444 30.408870 9.736149 3.916102 6.860057 2.066864 1.129957 0.000000 0.000000 0.000000 6.835853 2.135327 1.146297 -7.949792 -4.235520 1.372954 -21.131458 -17.422406 -7.101430 -0.000003 0.000000 -0.000000 5.673070 -23.734077 -9.066830 0.000000 0.000000 0.000000 -27.862350 -10.438779 -41.186468 -0.000020 -38.893447 -0.000013 -42.320282 -3.346965 4.206389 -1.538522 3.693638 6.118921 3.939048 7.948714 0.746812 -0.579468 1.574990 2.538711 -0.000006 -0.000003 -0.000001 0.298632 2.009587 -16.903106 0.539678 2.676801 -22.793531 0.036392 0.708418 -5.880831 -0.000000 0.000000 0.000001 0.298072 2.007731 -16.887117 0.540426 2.678581 -22.809547 0.036390 0.708417 -5.880832 0.000002 0.000001 0.000002 0.298632 2.009585 -16.903111 0.539672 2.676798 -22.793543 0.036393 0.708425 -5.880822 -0.000003 -0.000001 0.000000 1.465420 5.893259 -16.473119 0.545006 -1.382176 -23.265262 0.036394 0.708421 -5.880833 -0.000003 -0.000002 -0.000002 -0.454822 29.350996 14.140377 0.000000 0.000000 0.000000 -42.011934 48.862719 12.344905 -0.000003 14.620230 -0.000004 -4.045418 -7.800912 -22.899212 -1.848193 -3.584407 -6.569218 4.637193 -8.634135 -0.225400 -1.273758 0.137308 -2.094875 0.000000 0.000000 0.000006 0.480693 -2.544881 21.389415 1.003313 -3.603112 31.111293 0.099707 -1.175698 9.694892 0.000000 -0.000000 -0.000001 0.480693 -2.544880 21.389420 1.003311 -3.603114 31.111283 0.099711 -1.175696 9.694897 0.000000 0.000000 -0.000000 0.480692 -2.544879 21.389422 1.003310 -3.603119 31.111283 0.099712 -1.175693 9.694904 -0.000001 -0.000000 -0.000000 0.480694 -2.544878 21.389426 1.003304 -3.603115 31.111293 0.099710 -1.175697 9.694879 -0.000001 -0.000000 -0.000003 -64.189127 -4.074919 -0.144159 103.408080 -3.752385 0.718297 7.779838 -6.664115 -8.004269 7.175565 -3.663903 -16.288294 0.000001 0.000002 -0.000003 -111.899638 -5.105944 -23.091941 103.890872 -11.648317 6.327687 -16.190315 -8.314787 5.042282 -10.407072 -0.000023 -0.000002 -0.000000 -0.000001 0.000001 
18.245823 65.107765 -52.318031 48.544593 -31.250964 16.085273 30.458156 9.787498 3.590876 6.860449 2.055450 1.057263 0.000000 0.000000 0.000000 6.836467 2.123751 1.073448 -7.756116 -4.044935 1.169400 -20.994367 -16.671643 -7.271158 -0.000002 0.000003 -0.000003 5.677200 -23.780717 -9.018297 0.000000 0.000000 0.000000 -27.386367 -9.567765 -41.312341 -0.000025 -39.455189 -0.000023 -42.046948 -3.027417 4.146437 -1.537388 3.696283 6.101104 3.939057 7.948691 0.746782 -0.579456 1.575001 2.538706 -0.000004 0.000001 0.000002 0.298630 2.009585 -16.903106 0.539675 2.676799 -22.793538 0.036392 0.708417 -5.880827 -0.000000 0.000000 -0.000001 0.298070 2.007738 -16.887107 0.540428 2.678572 -22.809572 0.036389 0.708421 -5.880826 -0.000001 0.000002 0.000001 0.298627 2.009588 -16.903099 0.539679 2.676798 -22.793543 0.036384 0.708413 -5.880831 -0.000002 -0.000001 0.000004 1.465420 5.893266 -16.473134 0.545012 -1.382191 -23.265320 0.036385 0.708423 -5.880816 0.000001 -0.000001 -0.000002 -0.367066 28.852362 13.849368 0.000000 0.000000 0.000000 -40.871613 48.371516 12.524502 0.000002 16.563847 0.000017 -4.109971 -7.929973 -21.633349 -1.847391 -3.586393 -6.556332 4.637192 -8.634130 -0.225411 -1.273759 0.137309 -2.094856 -0.000000 -0.000000 0.000001 0.480690 -2.544870 21.389427 1.003311 -3.603115 31.111293 0.099710 -1.175695 9.694897 -0.000001 -0.000001 -0.000003 0.480692 -2.544871 21.389424 1.003308 -3.603112 31.111303 0.099708 -1.175696 9.694893 -0.000001 -0.000001 0.000000 0.480689 -2.544871 21.389424 1.003308 -3.603117 31.111293 0.099708 -1.175694 9.694898 -0.000002 0.000000 -0.000001 0.480693 -2.544872 21.389424 1.003307 -3.603111 31.111303 0.099708 -1.175694 9.694897 -0.000002 0.000000 0.000001 -65.975864 -4.777804 0.555546 104.461180 -3.655941 0.298620 9.030592 -6.224491 -7.922607 4.158737 -2.703563 -14.322137 0.000000 -0.000000 0.000000 -110.841061 -5.249067 -22.770283 103.390486 -11.540406 6.306120 -16.253525 -8.297196 5.342419 -10.227518 0.000021 -0.000001 -0.000001 -0.000000 -0.000000 
18.335438 65.474228 -51.961548 48.106440 -31.899494 16.109037 30.572784 9.861126 3.214317 6.900521 2.048711 0.955040 0.000000 0.000000 0.000000 6.876926 2.117282 0.970885 -7.571697 -3.834398 0.935143 -20.880424 -15.870571 -7.421789 -0.000000 -0.000001 0.000002 5.697503 -23.899187 -8.949583 0.000000 0.000000 0.000000 -27.065934 -8.692579 -41.259844 0.000004 -40.071600 -0.000006 -41.576492 -2.697399 3.764257 -1.540041 3.690192 6.142376 3.939059 7.948701 0.746790 -0.579462 1.575001 2.538703 0.000003 -0.000001 -0.000001 0.298624 2.009577 -16.903110 0.539684 2.676805 -22.793548 0.036391 0.708411 -5.880818 0.000001 0.000000 0.000001 0.298072 2.007738 -16.887095 0.540430 2.678576 -22.809596 0.036389 0.708417 -5.880814 0.000000 0.000001 -0.000001 0.298626 2.009569 -16.903120 0.539681 2.676806 -22.793560 0.036388 0.708417 -5.880810 -0.000002 0.000000 0.000000 1.465422 5.893262 -16.473130 0.545011 -1.382179 -23.265325 0.036384 0.708415 -5.880814 0.000000 0.000000 -0.000004 -0.244505 28.311465 13.397235 0.000000 0.000000 0.000000 -39.815884 48.075267 12.700983 -0.000002 18.268886 0.000014 -4.377004 -7.996908 -20.176855 -1.846502 -3.588586 -6.542167 4.637193 -8.634128 -0.225399 -1.273758 0.137311 -2.094875 0.000000 -0.000001 -0.000001 0.480690 -2.544873 21.389424 1.003310 -3.603114 31.111293 0.099708 -1.175700 9.694906 -0.000000 -0.000001 -0.000000 0.480691 -2.544874 21.389415 1.003308 -3.603112 31.111303 0.099711 -1.175701 9.694899 0.000000 0.000000 0.000001 0.480689 -2.544876 21.389424 1.003310 -3.603119 31.111286 0.099710 -1.175698 9.694912 -0.000003 -0.000000 -0.000002 0.480688 -2.544872 21.389429 1.003310 -3.603117 31.111283 0.099706 -1.175699 9.694908 -0.000002 0.000001 -0.000000 -67.751761 -5.317343 0.976530 105.431900 -3.755884 0.212339 10.329686 -5.477923 -8.312987 0.571520 -1.755222 -12.045395 -0.000000 0.000001 -0.000003 -109.635519 -5.324339 -22.475105 102.859459 -11.399412 6.288498 -16.379040 -8.272038 5.701593 -10.060360 -0.000025 -0.000005 -0.000000 -0.000001 0.000001 
18.409731 65.899651 -51.524445 47.580228 -32.564204 16.163375 30.786135 9.937817 2.753469 6.923786 2.044795 0.861495 0.000000 0.000000 0.000000 6.900689 2.113031 0.877182 -7.371917 -3.600006 0.660432 -20.823135 -15.011132 -7.545697 -0.000002 -0.000001 0.000001 5.758439 -24.143192 -8.911108 0.000000 0.000000 0.000000 -26.806443 -7.789649 -40.855562 -0.000006 -40.789729 -0.000020 -40.997459 -2.407520 3.305864 -1.540039 3.690189 6.142354 3.939039 7.948705 0.746820 -0.579459 1.575006 2.538713 0.000001 0.000000 -0.000003 0.298641 2.009595 -16.903094 0.539669 2.676791 -22.793543 0.036396 0.708421 -5.880820 -0.000000 0.000000 0.000000 0.298071 2.007747 -16.887086 0.540425 2.678573 -22.809577 0.036394 0.708420 -5.880816 -0.000001 -0.000001 -0.000002 0.298634 2.009590 -16.903096 0.539675 2.676792 -22.793550 0.036397 0.708423 -5.880817 0.000001 -0.000001 0.000004 1.465415 5.893274 -16.473108 0.545005 -1.382187 -23.265310 0.036385 0.708426 -5.880801 -0.000002 -0.000001 0.000000 -0.090564 27.840278 12.771124 0.000000 0.000000 0.000000 -38.951619 47.768765 12.863088 -0.000003 19.980752 0.000007 -4.789532 -8.173841 -18.486397 -1.849252 -3.581791 -6.586134 4.637193 -8.634136 -0.225401 -1.273757 0.137314 -2.094873 0.000001 0.000000 0.000001 0.480695 -2.544871 21.389400 1.003308 -3.603112 31.111320 0.099706 -1.175698 9.694891 -0.000000 0.000000 -0.000000 0.480692 -2.544872 21.389403 1.003308 -3.603115 31.111320 0.099709 -1.175699 9.694875 0.000002 -0.000001 -0.000002 0.480691 -2.544871 21.389403 1.003308 -3.603116 31.111320 0.099706 -1.175697 9.694881 0.000001 0.000000 0.000003 0.480688 -2.544868 21.389415 1.003307 -3.603115 31.111314 0.099709 -1.175701 9.694874 -0.000001 0.000000 -0.000001 -69.395815 -5.798118 1.199967 106.244207 -3.888069 0.315706 11.515337 -5.018550 -9.052991 -3.409013 -0.942381 -9.597369 0.000000 0.000000 0.000000 -108.256722 -5.335434 -22.137244 102.272541 -11.241340 6.239804 -16.581529 -8.300716 6.066716 -9.820713 -0.000020 -0.000009 -0.000000 0.000000 -0.000000 
